<svg xmlns:xlink="http://www.w3.org/1999/xlink" xmlns="http://www.w3.org/2000/svg" class="icon-sidebar-all-list w-full h-full text-sidebar-color-60" width="18"  height="18" ><defs><symbol xmlns="http://www.w3.org/2000/svg" viewBox="0 0 18 18" id="sidebar-all-list" fill="#191919"><path d="M15,3L3,3C3,2.171573,3.67157,1.5,4.5,1.5L13.5,1.5C14.3284,1.5,15,2.171573,15,3ZM16.125,5.25L1.875,5.25C1.875,4.42157,2.54657,3.75,3.375,3.75L14.625,3.75C15.4534,3.75,16.125,4.42157,16.125,5.25ZM0.75,8.25L0.75,14.25C0.75,15.4926,1.75736,16.5,3,16.5L15,16.5C16.2426,16.5,17.25,15.4926,17.25,14.25L17.25,8.25C17.25,7.00736,16.2426,6,15,6L3,6C1.75736,6,0.75,7.00736,0.75,8.25ZM2.25,8.25L2.25,14.25Q2.25,14.5607,2.46967,14.7803Q2.68934,15,3,15L15,15Q15.3107,15,15.5303,14.7803Q15.75,14.5607,15.75,14.25L15.75,8.25Q15.75,7.93935,15.5303,7.71968Q15.3107,7.5,15,7.5L3,7.5Q2.68935,7.50001,2.4696800000000003,7.71968Q2.25,7.93934,2.25,8.25Z" fill-rule="evenodd" fill="#191919"></path></symbol></defs><use xlink:href="#sidebar-all-list"></use></svg>