<svg xmlns:xlink="http://www.w3.org/1999/xlink" xmlns="http://www.w3.org/2000/svg" class="icon-calendar-sidebar w-[22px] h-[22px] text-grey whiteSvg_2wUcK opacity-40 hover:opacity-60" width="22"  height="22" ><defs><symbol xmlns="http://www.w3.org/2000/svg" viewBox="0 0 22 22" id="calendar-sidebar" fill="#191919"><path d="M1.1458404421988466,5.683373373069763L1.1458404064178467,5.506923373069763C1.1458404064178467,3.4818833730697634,2.7952704064178464,1.8333333730697632,4.820310406417846,1.8333333730697632L17.208140406417847,1.8333333730697632C19.233240406417845,1.8333333730697632,20.854140406417848,3.4818833730697634,20.854140406417848,5.506923373069763L20.854140406417848,5.683373373069763L1.1458404064178467,5.683373373069763L1.1458404421988466,5.683373373069763ZM1.1458406280898468,6.600033373069763L1.1458426342978467,16.493033373069764C1.1458426322178468,18.518133373069762,2.7856904064178467,20.166633373069764,4.810730406417846,20.166633373069764C8.975570406417846,20.166733373069764,13.024440406417847,20.166733373069764,17.189240406417845,20.166633373069764C19.214340406417847,20.166633373069764,20.854140406417848,18.518133373069762,20.854140406417848,16.493033373069764C20.854140406417848,13.874333373069764,20.854140406417848,11.060103373069763,20.854140406417848,8.339383373069763L20.854140406417848,6.600033373069763L1.1458404064178467,6.600033373069763L1.1458406280898468,6.600033373069763ZM4.812500406417847,10.770853373069762Q4.812500406417847,10.714563373069764,4.818020406417847,10.658543373069763Q4.823540406417846,10.602523373069763,4.834520406417846,10.547313373069763Q4.845500406417846,10.492103373069764,4.861840406417847,10.438233373069764Q4.878180406417847,10.384363373069764,4.899730406417847,10.332363373069763Q4.921270406417847,10.280353373069763,4.947800406417846,10.230713373069763Q4.974340406417847,10.181063373069764,5.005610406417847,10.134263373069762Q5.036890406417847,10.087453373069764,5.0726004064178465,10.043943373069764Q5.108310406417846,10.000433373069763,5.148110406417847,9.960623373069764Q5.187920406417847,9.920823373069764,5.2314304064178465,9.885113373069764Q5.274940406417847,9.849403373069762,5.321750406417847,9.818123373069763Q5.368550406417847,9.786853373069764,5.418200406417847,9.760323373069763Q5.467840406417847,9.733783373069762,5.519850406417847,9.712243373069764Q5.5718504064178465,9.690703373069763,5.625720406417846,9.674363373069763Q5.679590406417847,9.658023373069764,5.734800406417847,9.647033373069764Q5.790010406417847,9.636053373069764,5.846030406417847,9.630543373069763Q5.902050406417847,9.625023373069762,5.958340406417847,9.625023373069762L6.416670406417847,9.625023373069762Q6.4729604064178465,9.625023373069762,6.528980406417847,9.630533373069763Q6.585000406417847,9.636053373069764,6.640210406417847,9.647033373069764Q6.695420406417846,9.658023373069764,6.749290406417846,9.674363373069763Q6.803160406417847,9.690703373069763,6.855160406417847,9.712243373069764Q6.907170406417847,9.733783373069762,6.956810406417847,9.760323373069763Q7.006460406417847,9.786853373069764,7.053260406417847,9.818123373069763Q7.100070406417847,9.849403373069762,7.143580406417847,9.885113373069764Q7.1870904064178465,9.920823373069764,7.226900406417847,9.960623373069764Q7.266700406417847,10.000433373069763,7.302410406417847,10.043943373069764Q7.338120406417847,10.087453373069764,7.369400406417847,10.134263373069762Q7.400670406417847,10.181063373069764,7.427210406417847,10.230713373069763Q7.453740406417847,10.280353373069763,7.475280406417847,10.332363373069763Q7.4968204064178465,10.384363373069764,7.513160406417847,10.438233373069764Q7.529510406417847,10.492103373069764,7.540490406417847,10.547313373069763Q7.551470406417847,10.602523373069763,7.556990406417847,10.658543373069763Q7.562500406417847,10.714563373069764,7.562500406417847,10.770853373069762Q7.562500406417847,10.827143373069763,7.556990406417847,10.883163373069763Q7.551470406417847,10.939183373069763,7.540490406417847,10.994393373069764Q7.529510406417847,11.049603373069763,7.513160406417847,11.103473373069763Q7.4968204064178465,11.157333373069763,7.475280406417847,11.209343373069764Q7.453740406417847,11.261353373069763,7.427210406417847,11.310993373069763Q7.400670406417847,11.360633373069764,7.369400406417847,11.407443373069762Q7.338120406417847,11.454243373069763,7.302410406417847,11.497763373069763Q7.266700406417847,11.541273373069764,7.226900406417847,11.581083373069763Q7.1870904064178465,11.620883373069763,7.143580406417847,11.656593373069763Q7.100070406417847,11.692303373069763,7.053260406417847,11.723583373069763Q7.006460406417847,11.754853373069762,6.956810406417847,11.781383373069763Q6.907170406417847,11.807923373069762,6.855160406417847,11.829463373069764Q6.803160406417847,11.851033373069763,6.749290406417846,11.867333373069764Q6.695420406417846,11.883733373069763,6.640210406417847,11.894633373069762Q6.585000406417847,11.905633373069763,6.528980406417847,11.911133373069763Q6.4729604064178465,11.916733373069762,6.416670406417847,11.916733373069762L5.958340406417847,11.916733373069762Q5.902050406417847,11.916733373069762,5.846030406417847,11.911133373069763Q5.790010406417847,11.905633373069763,5.734800406417847,11.894633373069762Q5.679590406417847,11.883733373069763,5.625720406417846,11.867333373069764Q5.5718504064178465,11.851033373069763,5.519850406417847,11.829463373069764Q5.467840406417847,11.807923373069762,5.418200406417847,11.781383373069763Q5.368550406417847,11.754853373069762,5.321750406417847,11.723573373069764Q5.274940406417847,11.692303373069763,5.2314304064178465,11.656593373069763Q5.187920406417847,11.620883373069763,5.148110406417847,11.581083373069763Q5.108310406417846,11.541273373069764,5.0726004064178465,11.497763373069763Q5.036890406417847,11.454243373069763,5.005610406417847,11.407443373069762Q4.974340406417847,11.360633373069764,4.947800406417846,11.310993373069763Q4.921270406417847,11.261353373069763,4.899730406417847,11.209343373069764Q4.878180406417847,11.157333373069763,4.861840406417847,11.103473373069763Q4.845500406417846,11.049603373069763,4.834520406417846,10.994393373069764Q4.823540406417846,10.939183373069763,4.818020406417847,10.883163373069763Q4.812500406417847,10.827143373069763,4.812500406417847,10.770853373069762ZM9.625000406417847,10.770853373069762Q9.625000406417847,10.714563373069764,9.630520406417848,10.658543373069763Q9.636040406417846,10.602523373069763,9.647020406417846,10.547313373069763Q9.658000406417846,10.492103373069764,9.674340406417846,10.438233373069764Q9.690680406417847,10.384363373069764,9.712220406417847,10.332363373069763Q9.733770406417847,10.280353373069763,9.760300406417846,10.230713373069763Q9.786840406417847,10.181063373069764,9.818110406417846,10.134263373069762Q9.849380406417847,10.087453373069764,9.885100406417846,10.043943373069764Q9.920810406417846,10.000433373069763,9.960610406417846,9.960623373069764Q10.000420406417847,9.920823373069764,10.043930406417847,9.885113373069764Q10.087440406417846,9.849403373069762,10.134250406417847,9.818123373069763Q10.181050406417846,9.786853373069764,10.230700406417848,9.760323373069763Q10.280340406417846,9.733783373069762,10.332350406417847,9.712243373069764Q10.384350406417846,9.690703373069763,10.438220406417846,9.674363373069763Q10.492090406417846,9.658023373069764,10.547300406417847,9.647033373069764Q10.602510406417847,9.636053373069764,10.658530406417846,9.630543373069763Q10.714550406417846,9.625023373069762,10.770840406417847,9.625023373069762L11.229140406417846,9.625023373069762Q11.285440406417846,9.625023373069762,11.341440406417847,9.630533373069763Q11.397540406417846,9.636053373069764,11.452740406417847,9.647033373069764Q11.507940406417847,9.658023373069764,11.561740406417847,9.674363373069763Q11.615640406417846,9.690703373069763,11.667640406417847,9.712243373069764Q11.719640406417847,9.733783373069762,11.769340406417847,9.760323373069763Q11.818940406417846,9.786853373069764,11.865740406417848,9.818123373069763Q11.912540406417847,9.849403373069762,11.956040406417847,9.885113373069764Q11.999640406417846,9.920823373069764,12.039440406417846,9.960623373069764Q12.079240406417847,10.000433373069763,12.114940406417846,10.043943373069764Q12.150640406417846,10.087453373069764,12.181940406417846,10.134263373069762Q12.213140406417846,10.181063373069764,12.239740406417846,10.230713373069763Q12.266240406417847,10.280353373069763,12.287740406417846,10.332363373069763Q12.309340406417848,10.384363373069764,12.325640406417847,10.438233373069764Q12.342040406417846,10.492103373069764,12.352940406417847,10.547313373069763Q12.363940406417846,10.602523373069763,12.369440406417846,10.658543373069763Q12.375040406417847,10.714563373069764,12.375040406417847,10.770853373069762Q12.375040406417847,10.827143373069763,12.369440406417846,10.883163373069763Q12.363940406417846,10.939183373069763,12.352940406417847,10.994393373069764Q12.342040406417846,11.049603373069763,12.325640406417847,11.103473373069763Q12.309340406417848,11.157333373069763,12.287740406417846,11.209343373069764Q12.266240406417847,11.261353373069763,12.239740406417846,11.310993373069763Q12.213140406417846,11.360633373069764,12.181940406417846,11.407443373069762Q12.150640406417846,11.454243373069763,12.114940406417846,11.497763373069763Q12.079240406417847,11.541273373069764,12.039440406417846,11.581083373069763Q11.999640406417846,11.620883373069763,11.956040406417847,11.656593373069763Q11.912540406417847,11.692303373069763,11.865740406417848,11.723583373069763Q11.818940406417846,11.754853373069762,11.769340406417847,11.781383373069763Q11.719640406417847,11.807923373069762,11.667640406417847,11.829463373069764Q11.615640406417846,11.851033373069763,11.561740406417847,11.867333373069764Q11.507940406417847,11.883733373069763,11.452740406417847,11.894633373069762Q11.397540406417846,11.905633373069763,11.341440406417847,11.911133373069763Q11.285440406417846,11.916733373069762,11.229140406417846,11.916733373069762L10.770840406417847,11.916733373069762Q10.714550406417846,11.916733373069762,10.658530406417846,11.911133373069763Q10.602510406417847,11.905633373069763,10.547300406417847,11.894633373069762Q10.492090406417846,11.883733373069763,10.438220406417846,11.867333373069764Q10.384350406417846,11.851033373069763,10.332350406417847,11.829463373069764Q10.280340406417846,11.807923373069762,10.230690406417846,11.781383373069763Q10.181050406417846,11.754853373069762,10.134250406417847,11.723573373069764Q10.087440406417846,11.692303373069763,10.043930406417847,11.656593373069763Q10.000420406417847,11.620883373069763,9.960610406417846,11.581083373069763Q9.920810406417846,11.541273373069764,9.885100406417846,11.497763373069763Q9.849380406417847,11.454243373069763,9.818110406417846,11.407443373069762Q9.786840406417847,11.360633373069764,9.760300406417846,11.310993373069763Q9.733770406417847,11.261353373069763,9.712230406417847,11.209343373069764Q9.690680406417847,11.157333373069763,9.674340406417846,11.103473373069763Q9.658000406417846,11.049603373069763,9.647020406417846,10.994393373069764Q9.636040406417846,10.939183373069763,9.630520406417848,10.883163373069763Q9.625000406417847,10.827143373069763,9.625000406417847,10.770853373069762ZM14.437540406417847,10.770853373069762Q14.437540406417847,10.714563373069764,14.443040406417847,10.658543373069763Q14.448540406417846,10.602523373069763,14.459540406417847,10.547313373069763Q14.470540406417847,10.492103373069764,14.486840406417846,10.438233373069764Q14.503140406417847,10.384363373069764,14.524740406417846,10.332363373069763Q14.546240406417846,10.280353373069763,14.572840406417846,10.230713373069763Q14.599340406417847,10.181063373069764,14.630640406417847,10.134263373069762Q14.661840406417847,10.087453373069764,14.697640406417847,10.043943373069764Q14.733340406417847,10.000433373069763,14.773140406417847,9.960623373069764Q14.812940406417846,9.920823373069764,14.856440406417846,9.885113373069764Q14.899940406417846,9.849403373069762,14.946740406417847,9.818123373069763Q14.993540406417846,9.786853373069764,15.043240406417846,9.760323373069763Q15.092840406417846,9.733783373069762,15.144840406417847,9.712243373069764Q15.196840406417847,9.690703373069763,15.250740406417847,9.674363373069763Q15.304540406417846,9.658023373069764,15.359840406417847,9.647033373069764Q15.415040406417846,9.636053373069764,15.471040406417847,9.630543373069763Q15.527040406417846,9.625023373069762,15.583340406417847,9.625023373069762L16.041640406417848,9.625023373069762Q16.097940406417848,9.625023373069762,16.153940406417846,9.630533373069763Q16.210040406417846,9.636053373069764,16.265240406417846,9.647033373069764Q16.320440406417845,9.658023373069764,16.374240406417847,9.674363373069763Q16.428140406417846,9.690703373069763,16.480140406417846,9.712243373069764Q16.532140406417845,9.733783373069762,16.581840406417847,9.760323373069763Q16.631440406417845,9.786853373069764,16.67824040641785,9.818123373069763Q16.725040406417847,9.849403373069762,16.76854040641785,9.885113373069764Q16.812140406417846,9.920823373069764,16.851940406417846,9.960623373069764Q16.891740406417846,10.000433373069763,16.927440406417844,10.043943373069764Q16.963140406417846,10.087453373069764,16.994440406417844,10.134263373069762Q17.025640406417846,10.181063373069764,17.052240406417845,10.230713373069763Q17.078740406417847,10.280353373069763,17.100240406417846,10.332363373069763Q17.121840406417846,10.384363373069764,17.138140406417847,10.438233373069764Q17.154540406417848,10.492103373069764,17.165440406417847,10.547313373069763Q17.176440406417846,10.602523373069763,17.181940406417848,10.658543373069763Q17.187540406417845,10.714563373069764,17.187540406417845,10.770853373069762Q17.187540406417845,10.827143373069763,17.181940406417848,10.883163373069763Q17.176440406417846,10.939183373069763,17.165440406417847,10.994393373069764Q17.154540406417848,11.049603373069763,17.138140406417847,11.103473373069763Q17.121840406417846,11.157333373069763,17.100240406417846,11.209343373069764Q17.078740406417847,11.261353373069763,17.052240406417845,11.310993373069763Q17.025640406417846,11.360633373069764,16.994440406417844,11.407443373069762Q16.963140406417846,11.454243373069763,16.927440406417844,11.497763373069763Q16.891740406417846,11.541273373069764,16.851940406417846,11.581083373069763Q16.812140406417846,11.620883373069763,16.76854040641785,11.656593373069763Q16.725040406417847,11.692303373069763,16.67824040641785,11.723583373069763Q16.631440406417845,11.754853373069762,16.581840406417847,11.781383373069763Q16.532140406417845,11.807923373069762,16.480140406417846,11.829463373069764Q16.428140406417846,11.851033373069763,16.374240406417847,11.867333373069764Q16.320440406417845,11.883733373069763,16.265240406417846,11.894633373069762Q16.210040406417846,11.905633373069763,16.153940406417846,11.911133373069763Q16.097940406417848,11.916733373069762,16.041640406417848,11.916733373069762L15.583340406417847,11.916733373069762Q15.527040406417846,11.916733373069762,15.471040406417847,11.911133373069763Q15.415040406417846,11.905633373069763,15.359840406417847,11.894633373069762Q15.304540406417846,11.883733373069763,15.250740406417847,11.867333373069764Q15.196840406417847,11.851033373069763,15.144840406417847,11.829463373069764Q15.092840406417846,11.807923373069762,15.043240406417846,11.781383373069763Q14.993540406417846,11.754853373069762,14.946740406417847,11.723573373069764Q14.899940406417846,11.692303373069763,14.856440406417846,11.656593373069763Q14.812940406417846,11.620883373069763,14.773140406417847,11.581083373069763Q14.733340406417847,11.541273373069764,14.697640406417847,11.497763373069763Q14.661840406417847,11.454243373069763,14.630640406417847,11.407443373069762Q14.599340406417847,11.360633373069764,14.572840406417846,11.310993373069763Q14.546240406417846,11.261353373069763,14.524740406417846,11.209343373069764Q14.503140406417847,11.157333373069763,14.486840406417846,11.103473373069763Q14.470540406417847,11.049603373069763,14.459540406417847,10.994393373069764Q14.448540406417846,10.939183373069763,14.443040406417847,10.883163373069763Q14.437540406417847,10.827143373069763,14.437540406417847,10.770853373069762ZM4.812500406417847,14.895833373069763Q4.812500406417847,14.839533373069763,4.818020406417847,14.783533373069764Q4.823540406417846,14.727533373069763,4.834520406417846,14.672333373069764Q4.845500406417846,14.617133373069763,4.861840406417847,14.563233373069764Q4.878180406417847,14.509333373069763,4.899730406417847,14.457333373069764Q4.921270406417847,14.405333373069762,4.947800406417846,14.355733373069762Q4.974340406417847,14.306033373069763,5.005610406417847,14.259233373069764Q5.036890406417847,14.212433373069763,5.0726004064178465,14.168933373069763Q5.108310406417846,14.125433373069763,5.148110406417847,14.085633373069763Q5.187920406417847,14.045833373069764,5.2314304064178465,14.010133373069763Q5.274940406417847,13.974433373069763,5.321750406417847,13.943133373069763Q5.368550406417847,13.911833373069763,5.418200406417847,13.885333373069763Q5.467840406417847,13.858733373069763,5.519850406417847,13.837233373069763Q5.5718504064178465,13.815733373069763,5.625720406417846,13.799333373069762Q5.679590406417847,13.783033373069763,5.734800406417847,13.772033373069764Q5.790010406417847,13.761033373069763,5.846030406417847,13.755533373069763Q5.902050406417847,13.750033373069764,5.958340406417847,13.750033373069764L6.416670406417847,13.750033373069764Q6.4729604064178465,13.750033373069764,6.528980406417847,13.755533373069763Q6.585000406417847,13.761033373069763,6.640210406417847,13.772033373069764Q6.695420406417846,13.783033373069763,6.749290406417846,13.799333373069762Q6.803160406417847,13.815733373069763,6.855160406417847,13.837233373069763Q6.907170406417847,13.858733373069763,6.956810406417847,13.885333373069763Q7.006460406417847,13.911833373069763,7.053260406417847,13.943133373069763Q7.100070406417847,13.974433373069763,7.143580406417847,14.010133373069763Q7.1870904064178465,14.045833373069764,7.226900406417847,14.085633373069763Q7.266700406417847,14.125433373069763,7.302410406417847,14.168933373069763Q7.338120406417847,14.212433373069763,7.369400406417847,14.259233373069764Q7.400670406417847,14.306033373069763,7.427210406417847,14.355733373069762Q7.453740406417847,14.405333373069762,7.475280406417847,14.457333373069764Q7.4968204064178465,14.509333373069763,7.513160406417847,14.563233373069764Q7.529510406417847,14.617133373069763,7.540490406417847,14.672333373069764Q7.551470406417847,14.727533373069763,7.556990406417847,14.783533373069764Q7.562500406417847,14.839533373069763,7.562500406417847,14.895833373069763Q7.562500406417847,14.952133373069763,7.556990406417847,15.008133373069763Q7.551470406417847,15.064233373069763,7.540490406417847,15.119433373069763Q7.529510406417847,15.174633373069764,7.513160406417847,15.228433373069763Q7.4968204064178465,15.282333373069763,7.475280406417847,15.334333373069763Q7.453740406417847,15.386333373069764,7.427210406417847,15.436033373069764Q7.400670406417847,15.485633373069764,7.369400406417847,15.532433373069763Q7.338120406417847,15.579233373069764,7.302410406417847,15.622733373069764Q7.266700406417847,15.666233373069764,7.226900406417847,15.706033373069763Q7.1870904064178465,15.745833373069763,7.143580406417847,15.781633373069763Q7.100070406417847,15.817333373069763,7.053260406417847,15.848533373069763Q7.006460406417847,15.879833373069763,6.956810406417847,15.906433373069763Q6.907170406417847,15.932933373069764,6.855160406417847,15.954433373069763Q6.803160406417847,15.976033373069763,6.749290406417846,15.992333373069764Q6.695420406417846,16.008733373069763,6.640210406417847,16.019633373069762Q6.585000406417847,16.03063337306976,6.528980406417847,16.036133373069763Q6.4729604064178465,16.04173337306976,6.416670406417847,16.04173337306976L5.958340406417847,16.04173337306976Q5.902050406417847,16.04173337306976,5.846030406417847,16.036133373069763Q5.790010406417847,16.03063337306976,5.734800406417847,16.019633373069762Q5.679590406417847,16.008733373069763,5.625720406417846,15.992333373069764Q5.5718504064178465,15.976033373069763,5.519850406417847,15.954433373069763Q5.467840406417847,15.932933373069764,5.418200406417847,15.906433373069763Q5.368550406417847,15.879833373069763,5.321750406417847,15.848533373069763Q5.274940406417847,15.817333373069763,5.2314304064178465,15.781633373069763Q5.187920406417847,15.745933373069763,5.148110406417847,15.706033373069763Q5.108310406417846,15.666233373069764,5.0726004064178465,15.622733373069764Q5.036890406417847,15.579233373069764,5.005610406417847,15.532433373069763Q4.974340406417847,15.485633373069764,4.947800406417846,15.436033373069764Q4.921270406417847,15.386333373069764,4.899730406417847,15.334333373069763Q4.878180406417847,15.282333373069763,4.861840406417847,15.228433373069763Q4.845500406417846,15.174633373069764,4.834520406417846,15.119433373069763Q4.823540406417846,15.064233373069763,4.818020406417847,15.008133373069763Q4.812500406417847,14.952133373069763,4.812500406417847,14.895833373069763ZM9.625000406417847,14.895833373069763Q9.625000406417847,14.839533373069763,9.630520406417848,14.783533373069764Q9.636040406417846,14.727533373069763,9.647020406417846,14.672333373069764Q9.658000406417846,14.617133373069763,9.674340406417846,14.563233373069764Q9.690680406417847,14.509333373069763,9.712220406417847,14.457333373069764Q9.733770406417847,14.405333373069762,9.760300406417846,14.355733373069762Q9.786840406417847,14.306033373069763,9.818110406417846,14.259233373069764Q9.849380406417847,14.212433373069763,9.885100406417846,14.168933373069763Q9.920810406417846,14.125433373069763,9.960610406417846,14.085633373069763Q10.000420406417847,14.045833373069764,10.043930406417847,14.010133373069763Q10.087440406417846,13.974433373069763,10.134250406417847,13.943133373069763Q10.181050406417846,13.911833373069763,10.230700406417848,13.885333373069763Q10.280340406417846,13.858733373069763,10.332350406417847,13.837233373069763Q10.384350406417846,13.815733373069763,10.438220406417846,13.799333373069762Q10.492090406417846,13.783033373069763,10.547300406417847,13.772033373069764Q10.602510406417847,13.761033373069763,10.658530406417846,13.755533373069763Q10.714550406417846,13.750033373069764,10.770840406417847,13.750033373069764L11.229140406417846,13.750033373069764Q11.285440406417846,13.750033373069764,11.341440406417847,13.755533373069763Q11.397540406417846,13.761033373069763,11.452740406417847,13.772033373069764Q11.507940406417847,13.783033373069763,11.561740406417847,13.799333373069762Q11.615640406417846,13.815733373069763,11.667640406417847,13.837233373069763Q11.719640406417847,13.858733373069763,11.769340406417847,13.885333373069763Q11.818940406417846,13.911833373069763,11.865740406417848,13.943133373069763Q11.912540406417847,13.974433373069763,11.956040406417847,14.010133373069763Q11.999640406417846,14.045833373069764,12.039440406417846,14.085633373069763Q12.079240406417847,14.125433373069763,12.114940406417846,14.168933373069763Q12.150640406417846,14.212433373069763,12.181940406417846,14.259233373069764Q12.213140406417846,14.306033373069763,12.239740406417846,14.355733373069762Q12.266240406417847,14.405333373069762,12.287740406417846,14.457333373069764Q12.309340406417848,14.509333373069763,12.325640406417847,14.563233373069764Q12.342040406417846,14.617133373069763,12.352940406417847,14.672333373069764Q12.363940406417846,14.727533373069763,12.369440406417846,14.783533373069764Q12.375040406417847,14.839533373069763,12.375040406417847,14.895833373069763Q12.375040406417847,14.952133373069763,12.369440406417846,15.008133373069763Q12.363940406417846,15.064233373069763,12.352940406417847,15.119433373069763Q12.342040406417846,15.174633373069764,12.325640406417847,15.228433373069763Q12.309340406417848,15.282333373069763,12.287740406417846,15.334333373069763Q12.266240406417847,15.386333373069764,12.239740406417846,15.436033373069764Q12.213140406417846,15.485633373069764,12.181940406417846,15.532433373069763Q12.150640406417846,15.579233373069764,12.114940406417846,15.622733373069764Q12.079240406417847,15.666233373069764,12.039440406417846,15.706033373069763Q11.999640406417846,15.745833373069763,11.956040406417847,15.781633373069763Q11.912540406417847,15.817333373069763,11.865740406417848,15.848533373069763Q11.818940406417846,15.879833373069763,11.769340406417847,15.906433373069763Q11.719640406417847,15.932933373069764,11.667640406417847,15.954433373069763Q11.615640406417846,15.976033373069763,11.561740406417847,15.992333373069764Q11.507940406417847,16.008733373069763,11.452740406417847,16.019633373069762Q11.397540406417846,16.03063337306976,11.341440406417847,16.036133373069763Q11.285440406417846,16.04173337306976,11.229140406417846,16.04173337306976L10.770840406417847,16.04173337306976Q10.714550406417846,16.04173337306976,10.658530406417846,16.036133373069763Q10.602510406417847,16.03063337306976,10.547300406417847,16.019633373069762Q10.492090406417846,16.008733373069763,10.438220406417846,15.992333373069764Q10.384350406417846,15.976033373069763,10.332350406417847,15.954433373069763Q10.280340406417846,15.932933373069764,10.230690406417846,15.906433373069763Q10.181050406417846,15.879833373069763,10.134250406417847,15.848533373069763Q10.087440406417846,15.817333373069763,10.043930406417847,15.781633373069763Q10.000420406417847,15.745933373069763,9.960610406417846,15.706033373069763Q9.920810406417846,15.666233373069764,9.885100406417846,15.622733373069764Q9.849380406417847,15.579233373069764,9.818110406417846,15.532433373069763Q9.786840406417847,15.485633373069764,9.760300406417846,15.436033373069764Q9.733770406417847,15.386333373069764,9.712230406417847,15.334333373069763Q9.690680406417847,15.282333373069763,9.674340406417846,15.228433373069763Q9.658000406417846,15.174633373069764,9.647020406417846,15.119433373069763Q9.636040406417846,15.064233373069763,9.630520406417848,15.008133373069763Q9.625000406417847,14.952133373069763,9.625000406417847,14.895833373069763Z" fill-rule="evenodd" fill="#191919"></path></symbol></defs><use xlink:href="#calendar-sidebar"></use></svg>