<svg xmlns="http://www.w3.org/2000/svg" fill="none" width="44" height="44" viewBox="0 0 44 44"><path d="M22.002 4.955q2.274 0 3.883 1.608 1.439 1.44 1.59 3.406l.024.306.283.118q3.758 1.558 6.233 4.92 2.892 3.932 2.892 8.827 0 .899-.105 1.784l-.036.302.251.17q.445.303.85.708 1.608 1.608 1.608 3.882 0 2.275-1.608 3.883-1.609 1.608-3.883 1.608-1.322 0-2.412-.538l-.28-.138-.247.19q-3.96 3.054-9.043 3.054-5.08 0-9.043-3.054l-.247-.19-.28.138q-1.09.538-2.412.538-2.274 0-3.883-1.608-1.608-1.608-1.608-3.883 0-2.274 1.608-3.882.405-.405.85-.708l.252-.17-.037-.302q-.105-.885-.105-1.784 0-4.895 2.893-8.826 2.474-3.363 6.232-4.921l.284-.118.023-.306q.151-1.967 1.59-3.406 1.609-1.608 3.883-1.608zm0 2.423q-1.27 0-2.169.899-.899.898-.899 2.169 0 1.27.899 2.169.898.898 2.17.898 1.27 0 2.168-.898.899-.898.899-2.17 0-1.27-.899-2.168-.898-.899-2.169-.899zm5.048 5.328l-.23.407q-.367.647-.935 1.216-1.609 1.608-3.883 1.608t-3.883-1.608q-.568-.569-.934-1.216l-.23-.407-.422.203q-2.73 1.313-4.591 3.841-2.422 3.29-2.422 7.39 0 .447.031.89l.033.463.464.002q2.256.01 3.855 1.609 1.608 1.608 1.608 3.882 0 1.543-.734 2.772l-.239.4.381.266q3.142 2.198 7.083 2.198 3.942 0 7.083-2.198l.381-.266-.239-.4q-.734-1.229-.734-2.772 0-2.274 1.608-3.882 1.599-1.599 3.855-1.609l.464-.002.033-.462q.031-.444.031-.891 0-4.1-2.421-7.39-1.86-2.529-4.592-3.841l-.421-.203zM10.02 27.92q-1.27 0-2.169.898-.898.899-.898 2.17 0 1.27.898 2.168.899.899 2.17.899 1.27 0 2.168-.899.899-.898.899-2.169 0-1.27-.899-2.169-.898-.898-2.169-.898zm26.133.898q-.898-.898-2.169-.898-1.27 0-2.17.898-.898.899-.898 2.17 0 1.27.899 2.168.898.899 2.169.899 1.27 0 2.17-.899.898-.898.898-2.169 0-1.27-.899-2.169z" fill-rule="evenodd" fill="#191919"/></svg>