<svg xmlns="http://www.w3.org/2000/svg" fill="none" width="44" height="44" viewBox="0 0 44 44"><path d="M5.2 25.448V31.7q0 2.377 1.24 3.723 1.276 1.383 3.553 1.383h16.742q2.286 0 3.57-1.36 1.263-1.336 1.263-3.701V27.02l.283.128q1.013.462 2.047.462 2.197 0 3.669-1.619Q39 24.416 39 22.104q0-2.32-1.434-3.894-1.47-1.613-3.668-1.613-1.043 0-2.047.455l-.283.128V12.26q0-2.365-1.262-3.702Q29.02 7.2 26.735 7.2H9.993q-2.277 0-3.552 1.383Q5.2 9.929 5.2 12.305v6.287q0 1.094.7 1.83.708.745 1.75.745 1.086 0 1.99-.901 1.098-1.094 2.149-1.094 1.046 0 1.75.777.744.82.744 2.077 0 1.255-.742 2.07-.704.772-1.752.772-1.05 0-2.15-1.094-.903-.901-1.99-.901-1.04 0-1.75.745-.699.736-.699 1.83zm2.133 0q0-.435.317-.435.206 0 .487.28 1.723 1.715 3.652 1.715 1.988 0 3.326-1.468 1.301-1.428 1.301-3.514t-1.3-3.519q-1.339-1.475-3.327-1.475-1.93 0-3.652 1.715-.28.28-.487.28-.128 0-.206-.082-.11-.116-.11-.353v-6.287q0-1.538.673-2.268.642-.697 1.986-.697h16.742q2.7 0 2.7 2.921v6.343q0 .891.723 1.27.776.407 1.536-.208 1.13-.929 2.204-.929 1.258 0 2.093.917.876.96.876 2.45 0 1.482-.876 2.445-.838.921-2.093.921-1.048 0-2.205-.929-.743-.621-1.524-.223-.734.373-.734 1.275v6.153q0 1.438-.678 2.175-.684.745-2.022.745H9.993q-1.344 0-1.986-.696-.674-.73-.674-2.269v-6.253z" fill-rule="evenodd" fill="#191919"/></svg>