<svg xmlns="http://www.w3.org/2000/svg" fill="none" width="44" height="44" viewBox="0 0 44 44"><path d="M5.803 33.288Q4.517 32 4.517 30.182V13.818q0-1.82 1.286-3.106Q7.09 9.426 8.91 9.426h26.182q1.82 0 3.106 1.286 1.286 1.287 1.286 3.106v16.364q0 1.82-1.286 3.106-1.287 1.286-3.106 1.286H8.909q-1.82 0-3.106-1.286zm.953-19.47v16.364q0 .892.63 1.522.631.63 1.523.63h26.182q.892 0 1.522-.63.631-.63.631-1.522V13.818q0-.892-.63-1.522-.631-.63-1.523-.63H8.909q-.892 0-1.522.63-.631.63-.631 1.522zm6.866 4.91q0-.597-.422-1.019-.422-.422-1.018-.422-.597 0-1.018.422-.422.422-.422 1.018 0 .597.422 1.019.421.421 1.018.421.596 0 1.018-.421.422-.422.422-1.019zm6.545 0q0-.597-.421-1.019-.422-.422-1.019-.422-.596 0-1.018.422-.422.422-.422 1.018 0 .597.422 1.019.422.421 1.018.421.597 0 1.019-.421.421-.422.421-1.019zm6.546 0q0-.597-.422-1.019-.422-.422-1.018-.422-.597 0-1.018.422-.422.422-.422 1.018 0 .597.422 1.019.421.421 1.018.421.596 0 1.018-.421.422-.422.422-1.019zm6.545 0q0-.597-.421-1.019-.422-.422-1.019-.422-.596 0-1.018.422-.422.422-.422 1.018 0 .597.422 1.019.422.421 1.018.421.597 0 1.019-.421.421-.422.421-1.019zm-19.636 6.545q0-.597-.422-1.018-.422-.422-1.018-.422-.597 0-1.018.422-.422.421-.422 1.018 0 .596.422 1.018.421.422 1.018.422.596 0 1.018-.422.422-.422.422-1.018zm3.665 0q0 .596.422 1.018.422.422 1.018.422h6.546q.596 0 1.018-.422.422-.422.422-1.018 0-.597-.422-1.018-.422-.422-1.018-.422h-6.546q-.596 0-1.018.422-.422.421-.422 1.018zm15.971 0q0-.597-.421-1.018-.422-.422-1.019-.422-.596 0-1.018.422-.422.421-.422 1.018 0 .596.422 1.018.422.422 1.018.422.597 0 1.019-.422.421-.422.421-1.018z" fill-rule="evenodd" fill="#000"/></svg>