<svg xmlns="http://www.w3.org/2000/svg" width="28" height="28" viewBox="0 0 28 28" class="icon_1sJkQ"><path d="M7.583 13.417a5.833 5.833 0 115.834-5.834v5.834H7.583zm3.5-2.334v-3.5q0-1.45-1.025-2.475-1.025-1.025-2.475-1.025-1.45 0-2.475 1.025-1.025 1.026-1.025 2.475 0 1.45 1.025 2.475 1.026 1.025 2.475 1.025h3.5zm9.334 2.334a5.833 5.833 0 10-5.834-5.834v5.834h5.834zm-3.5-2.334v-3.5q0-1.45 1.025-2.475 1.025-1.025 2.475-1.025 1.45 0 2.474 1.025 1.026 1.026 1.026 2.475 0 1.45-1.026 2.475-1.025 1.025-2.474 1.025h-3.5zM7.583 26.25a5.833 5.833 0 010-11.667h5.834v5.834a5.833 5.833 0 01-5.834 5.833zm3.5-9.333h-3.5q-1.45 0-2.475 1.025-1.025 1.025-1.025 2.475 0 1.45 1.025 2.474 1.026 1.026 2.475 1.026 1.45 0 2.475-1.026 1.025-1.025 1.025-2.474v-3.5zm9.334 9.333a5.833 5.833 0 000-11.667h-5.834v5.834a5.833 5.833 0 005.834 5.833zm-3.5-9.333h3.5q1.45 0 2.474 1.025 1.026 1.025 1.026 2.475 0 1.45-1.026 2.474-1.025 1.026-2.474 1.026-1.45 0-2.475-1.026-1.025-1.025-1.025-2.474v-3.5z" fill-rule="evenodd"/></svg>