<svg xmlns:xlink="http://www.w3.org/1999/xlink" xmlns="http://www.w3.org/2000/svg" class="icon-notification-sidebar w-full h-full text-grey opacity-40 hover:opacity-60" width="22"  height="22" ><defs><symbol xmlns="http://www.w3.org/2000/svg" viewBox="0 0 20 20" id="notification-sidebar" fill="#191919"><path d="M16.66663331346512,11.875033313465119L16.66663331346512,7.500003313465118C16.66663331346512,3.8181033134651186,13.681933313465118,0.8333333134651184,10.000003313465118,0.8333333134651184C6.3181033134651186,0.8333333134651184,3.3333333134651184,3.8181033134651186,3.3333333134651184,7.500003313465118L3.3333333134651184,11.875033313465119C3.3333333134651184,12.680433313465118,2.6804133134651185,13.333333313465118,1.8750033134651185,13.333333313465118C1.2997033134651184,13.333333313465118,0.8333333134651184,13.799733313465119,0.8333333134651184,14.375033313465119C0.8333333134651184,14.95033331346512,1.2997033134651184,15.416633313465118,1.8750033134651185,15.416633313465118L18.125033313465117,15.416633313465118C18.70033331346512,15.416633313465118,19.16663331346512,14.95033331346512,19.16663331346512,14.375033313465119C19.16663331346512,13.799733313465119,18.70033331346512,13.333333313465118,18.125033313465117,13.333333313465118C17.31953331346512,13.333333313465118,16.66663331346512,12.680433313465118,16.66663331346512,11.875033313465119ZM7.640093313465118,17.494033313465117C7.4878433134651186,17.05973331346512,7.873053313465118,16.666733313465116,8.333293313465118,16.666733313465116L11.666633313465118,16.666733313465116C12.126833313465118,16.666733313465116,12.512033313465118,17.05973331346512,12.359833313465119,17.494033313465117C12.018333313465119,18.468133313465117,11.090733313465119,19.16673331346512,9.999963313465118,19.16673331346512C8.909193313465119,19.16673331346512,7.981593313465118,18.468133313465117,7.640093313465118,17.494033313465117Z" fill-rule="evenodd" fill="#191919"></path></symbol></defs><use xlink:href="#notification-sidebar"></use></svg>