<svg xmlns="http://www.w3.org/2000/svg" fill="none" width="44" height="44" viewBox="0 0 44 44"><path d="M7.194 15.879q-1.7-1.7-1.7-4.106 0-2.404 1.7-4.105 1.7-1.7 4.105-1.7 2.405 0 4.106 1.7.364.365.66.787l.14.202.227-.092Q19.1 7.497 22 7.497q2.9 0 5.568 1.068l.228.092.14-.202q.295-.422.66-.787 1.7-1.7 4.105-1.7 2.404 0 4.105 1.7 1.7 1.7 1.7 4.105 0 2.405-1.7 4.106-.365.364-.787.66l-.202.14.092.228q1.069 2.667 1.069 5.567 0 5.917-4.042 10.234l-.18.192 2.439 3.161q.309.4.244.901t-.465.81q-.4.308-.9.244-.502-.065-.81-.465l-2.345-3.04-.242.173Q26.789 37.452 22 37.452t-8.677-2.768l-.242-.172-2.344 3.039q-.309.4-.81.465-.501.064-.901-.244-.4-.309-.465-.81-.064-.501.244-.901l2.439-3.161-.18-.192q-4.042-4.317-4.042-10.234 0-2.9 1.07-5.568l.09-.227-.2-.14q-.423-.296-.788-.66zm6.486-6.486q-.986-.986-2.38-.986-1.395 0-2.38.986-.987.986-.987 2.38 0 1.395.986 2.38.06.06.12.116l.267.244.2-.301q1.686-2.546 4.231-4.232l.3-.199-.242-.267q-.056-.061-.115-.12zm21.401 4.76q.986-.985.986-2.38 0-1.394-.986-2.38t-2.38-.986q-1.395 0-2.38.986-.06.06-.116.121l-.242.267.3.199q2.545 1.687 4.232 4.232l.2.301.266-.244q.06-.056.12-.115zm-1.405 3.752q.862 2.202.862 4.57 0 2.39-.88 4.614-.956 2.415-2.792 4.251-1.836 1.836-4.25 2.792-2.224.88-4.616.88-2.392 0-4.615-.88-2.415-.956-4.25-2.792-1.837-1.836-2.793-4.25-.88-2.224-.88-4.616 0-2.391.88-4.615.956-2.415 2.792-4.25 1.836-1.837 4.25-2.793 2.224-.88 4.616-.88 2.392 0 4.615.88 2.415.956 4.251 2.792 1.709 1.709 2.655 3.918h.002l.07.17.086.208h-.003zm-12.896 4.57V14.83q0-.505.358-.863.357-.357.862-.357t.862.357q.358.358.358.863v6.423h3.366q.505 0 .862.358.358.357.358.862t-.358.863q-.357.357-.862.357H22q-.505 0-.862-.357-.358-.358-.358-.863z" fill-rule="evenodd" fill="#191919"/></svg>