<svg xmlns:xlink="http://www.w3.org/1999/xlink" xmlns="http://www.w3.org/2000/svg"><defs><symbol xmlns="http://www.w3.org/2000/svg" viewBox="0 0 20 20" id="c"><path d="M15.336333307504654,12.823633277702331Q15.794433307504654,11.964033277702331,16.030533307504655,11.01903327770233Q16.266633307504655,10.074043277702332,16.266633307504655,9.100003277702331Q16.266633307504655,8.905653277702331,16.257133307504652,8.711543277702331Q16.247633307504653,8.517433277702331,16.228533307504655,8.32403327770233Q16.209533307504653,8.13062327770233,16.180933307504652,7.938383277702331Q16.15243330750465,7.746143277702331,16.114533307504654,7.555533277702332Q16.076633307504654,7.3649232777023315,16.029433307504654,7.176403277702332Q15.982233307504654,6.987883277702331,15.925733307504654,6.801913277702331Q15.869333307504654,6.615933277702331,15.803933307504654,6.432953277702332Q15.738433307504653,6.249973277702331,15.664033307504655,6.070423277702331Q15.589633307504654,5.890873277702331,15.506533307504654,5.715183277702332Q15.423533307504654,5.539503277702331,15.331833307504654,5.3681132777023315Q15.240233307504655,5.196713277702331,15.140333307504655,5.030023277702332Q15.040433307504655,4.863323277702332,14.932433307504654,4.701733277702331Q14.824533307504653,4.540143277702331,14.708733307504653,4.3840432777023315Q14.592933307504653,4.227953277702332,14.469633307504655,4.077723277702331Q14.346333307504654,3.9274932777023315,14.215833307504655,3.7834932777023313Q14.085333307504653,3.6394932777023317,13.947933307504654,3.5020732777023316Q13.810533307504654,3.3646532777023315,13.666533307504654,3.2341332777023317Q13.522533307504654,3.1036232777023316,13.372233307504654,2.9803332777023313Q13.222033307504654,2.8570432777023314,13.065933307504654,2.741273277702332Q12.909833307504654,2.6255032777023315,12.748233307504654,2.5175332777023316Q12.586633307504654,2.4095632777023317,12.419933307504653,2.3096432777023317Q12.253333307504654,2.2097332777023313,12.081933307504654,2.1181232777023316Q11.910533307504654,2.0265102777023314,11.734833307504655,1.9434182777023317Q11.559133307504654,1.8603252777023316,11.379533307504653,1.7859532777023315Q11.200033307504654,1.7115812777023316,11.017033307504654,1.6461092777023316Q10.834033307504654,1.5806372777023316,10.648133307504654,1.5242222777023315Q10.462133307504654,1.4678072777023314,10.273593307504655,1.4205862777023315Q10.085073307504654,1.3733642777023316,9.894463307504655,1.3354492777023315Q9.703853307504653,1.2975352777023315,9.511613307504653,1.2690191777023316Q9.319373307504653,1.2405031777023316,9.125963307504653,1.2214541777023316Q8.932563307504655,1.2024051777023315,8.738453307504654,1.1928692477023315Q8.544343307504654,1.1833332777023315,8.350003307504654,1.1833332777023315Q8.155653307504654,1.1833332777023315,7.9615433075046536,1.1928692477023315Q7.767433307504654,1.2024051777023315,7.574033307504654,1.2214541777023316Q7.380623307504654,1.2405031777023316,7.188383307504654,1.2690191777023316Q6.996143307504654,1.2975352777023315,6.805533307504654,1.3354492777023315Q6.614923307504654,1.3733642777023316,6.426403307504654,1.4205862777023315Q6.237883307504654,1.4678072777023314,6.051913307504654,1.5242222777023315Q5.865933307504654,1.5806372777023316,5.682953307504654,1.6461092777023316Q5.4999733075046535,1.7115812777023316,5.320423307504654,1.7859532777023315Q5.140873307504654,1.8603252777023316,4.965183307504654,1.9434182777023317Q4.789503307504654,2.0265102777023314,4.618113307504654,2.1181232777023316Q4.446713307504654,2.2097332777023313,4.2800233075046545,2.3096432777023317Q4.113323307504654,2.4095632777023317,3.951733307504654,2.5175332777023316Q3.790143307504654,2.6255032777023315,3.634043307504654,2.741273277702332Q3.477953307504654,2.8570432777023314,3.327723307504654,2.9803332777023313Q3.177493307504654,3.1036232777023316,3.0334933075046537,3.2341332777023317Q2.889493307504654,3.3646532777023315,2.752073307504654,3.5020732777023316Q2.614653307504654,3.6394932777023317,2.484133307504654,3.7834932777023313Q2.353623307504654,3.9274932777023315,2.2303333075046536,4.077723277702331Q2.1070433075046537,4.227953277702332,1.991273307504654,4.3840432777023315Q1.8755033075046539,4.540143277702331,1.767533307504654,4.701733277702331Q1.6595633075046539,4.863323277702332,1.5596433075046539,5.030023277702332Q1.459733307504654,5.196713277702331,1.368123307504654,5.3681132777023315Q1.2765103075046538,5.539503277702331,1.193418307504654,5.715183277702332Q1.110325307504654,5.890873277702331,1.0359533075046539,6.070423277702331Q0.961581307504654,6.249973277702331,0.896109307504654,6.432953277702332Q0.8306373075046539,6.615933277702331,0.7742223075046539,6.801913277702331Q0.7178073075046539,6.987883277702331,0.6705863075046539,7.176403277702332Q0.623364307504654,7.3649232777023315,0.585449307504654,7.555533277702332Q0.547535307504654,7.746143277702331,0.5190192075046539,7.938383277702331Q0.4905032075046539,8.13062327770233,0.47145420750465394,8.32403327770233Q0.4524052075046539,8.517433277702331,0.44286927750465394,8.711543277702331Q0.43333330750465393,8.905653277702331,0.43333330750465393,9.100003277702331Q0.43333330750465393,9.294343277702332,0.44286927750465394,9.488453277702332Q0.4524052075046539,9.682563277702332,0.47145420750465394,9.875963277702331Q0.4905032075046539,10.069373277702331,0.5190192075046539,10.261613277702331Q0.547535307504654,10.453853277702331,0.585449307504654,10.644463277702332Q0.623364307504654,10.835073277702332,0.6705863075046539,11.023593277702332Q0.7178073075046539,11.212133277702332,0.7742223075046539,11.398133277702332Q0.8306373075046539,11.584033277702332,0.896109307504654,11.767033277702332Q0.961581307504654,11.950033277702332,1.0359533075046539,12.12953327770233Q1.110325307504654,12.309133277702331,1.193418307504654,12.484833277702332Q1.2765103075046538,12.660533277702331,1.368123307504654,12.831933277702332Q1.459733307504654,13.003333277702332,1.5596433075046539,13.16993327770233Q1.6595633075046539,13.336633277702331,1.767533307504654,13.498233277702331Q1.8755033075046539,13.659833277702331,1.991273307504654,13.815933277702332Q2.1070433075046537,13.972033277702332,2.2303333075046536,14.122233277702332Q2.353623307504654,14.272533277702331,2.484133307504654,14.416533277702332Q2.614653307504654,14.560533277702332,2.752073307504654,14.697933277702331Q2.889493307504654,14.83533327770233,3.0334933075046537,14.965833277702332Q3.177493307504654,15.096333277702332,3.327723307504654,15.219633277702332Q3.477953307504654,15.34293327770233,3.634043307504654,15.458733277702331Q3.790143307504654,15.574533277702331,3.951733307504654,15.682433277702332Q4.113323307504654,15.790433277702332,4.2800233075046545,15.890333277702332Q4.446713307504654,15.990233277702332,4.618113307504654,16.08183327770233Q4.789503307504654,16.173533277702333,4.965183307504654,16.25653327770233Q5.140873307504654,16.339633277702333,5.320423307504654,16.41403327770233Q5.4999733075046535,16.48843327770233,5.682953307504654,16.55393327770233Q5.865933307504654,16.61933327770233,6.051913307504654,16.67573327770233Q6.237883307504654,16.73223327770233,6.426403307504654,16.77943327770233Q6.614923307504654,16.82663327770233,6.805533307504654,16.864533277702332Q6.996143307504654,16.90243327770233,7.188383307504654,16.93093327770233Q7.380623307504654,16.95953327770233,7.574033307504654,16.978533277702333Q7.767433307504654,16.99763327770233,7.9615433075046536,17.00713327770233Q8.155653307504654,17.016633277702333,8.350003307504654,17.016633277702333Q9.001503307504654,17.016633277702333,9.644243307504654,16.910133277702332Q10.286983307504654,16.803633277702332,10.903633307504654,16.59353327770233Q11.520333307504654,16.38333327770233,12.094333307504654,16.07523327770233Q12.668433307504653,15.767033277702332,13.184333307504653,15.369233277702332L16.822533307504653,18.422033277702333Q16.885233307504652,18.47463327770233,16.952833307504655,18.52093327770233Q17.020433307504653,18.567133277702332,17.092233307504653,18.606533277702333Q17.163933307504653,18.64593327770233,17.239233307504655,18.678033277702333Q17.314533307504654,18.710233277702333,17.392633307504653,18.734833277702332Q17.470733307504656,18.759433277702332,17.550833307504654,18.77633327770233Q17.631033307504655,18.79313327770233,17.712433307504654,18.802033277702332Q17.793833307504652,18.810933277702333,17.875633307504653,18.81183327770233Q17.957533307504654,18.812733277702332,18.039133307504652,18.80563327770233Q18.120633307504654,18.798533277702333,18.201133307504655,18.783433277702333Q18.281633307504652,18.768333277702332,18.360233307504654,18.745333277702333Q18.438833307504655,18.722433277702333,18.514833307504652,18.691933277702333Q18.590833307504653,18.661433277702333,18.663433307504654,18.623633277702332Q18.736033307504655,18.58583327770233,18.804633307504655,18.541133277702333Q18.873233307504655,18.49633327770233,18.937033307504652,18.445133277702332Q19.000933307504653,18.39383327770233,19.059433307504655,18.336633277702333Q19.117933307504654,18.27933327770233,19.170533307504655,18.216633277702332Q19.223233307504653,18.153933277702333,19.269433307504652,18.08633327770233Q19.315633307504655,18.01873327770233,19.355033307504655,17.946933277702332Q19.394433307504652,17.875133277702332,19.426633307504655,17.79983327770233Q19.458733307504655,17.72453327770233,19.483333307504655,17.646433277702332Q19.508033307504654,17.568433277702333,19.524833307504654,17.48823327770233Q19.541733307504654,17.40813327770233,19.550633307504654,17.32673327770233Q19.559533307504655,17.245333277702333,19.560433307504653,17.16343327770233Q19.561333307504654,17.08163327770233,19.554133307504653,17.000033277702332Q19.547033307504655,16.91843327770233,19.531933307504655,16.83803327770233Q19.516833307504655,16.75753327770233,19.493933307504655,16.67893327770233Q19.471033307504655,16.600333277702333,19.440533307504655,16.524333277702333Q19.410033307504655,16.448333277702332,19.372233307504654,16.37573327770233Q19.334333307504654,16.30313327770233,19.289633307504655,16.234533277702333Q19.244933307504652,16.16593327770233,19.193633307504655,16.10213327770233Q19.142433307504653,16.038233277702332,19.085133307504655,15.979733277702332Q19.027833307504654,15.921233277702331,18.965133307504654,15.868533277702332L15.336333307504654,12.823633277702331ZM11.590933307504654,5.859093277702332Q12.933333307504654,7.201523277702331,12.933333307504654,9.100003277702331Q12.933333307504654,10.998473277702331,11.590933307504654,12.340933277702332Q10.248473307504653,13.683333277702332,8.350003307504654,13.683333277702332Q6.451523307504654,13.683333277702332,5.109093307504654,12.340933277702332Q3.766663307504654,10.998473277702331,3.766663307504654,9.100003277702331Q3.766663307504654,7.201523277702331,5.109093307504654,5.859093277702332Q6.451523307504654,4.516663277702332,8.350003307504654,4.516663277702332Q10.248473307504653,4.516663277702332,11.590933307504654,5.859093277702332Z" fill-rule="evenodd" fill="#191919"></path></symbol></defs></svg>