<svg xmlns:xlink="http://www.w3.org/1999/xlink" xmlns="http://www.w3.org/2000/svg" class="icon-sort i-o-36 i-h-o-54 w-[18px] h-[18px] opacity-60 cursor-pointer relative z-[1]" width="18"  height="18" >
    <defs>
        <symbol xmlns="http://www.w3.org/2000/svg" viewBox="0 0 16 16" id="sort" fill="#191919">
            <path d="M9.33337056564331,2.3333336269302367L9.33337056564331,13.666666626930237Q9.33336056564331,13.732366626930236,9.34617056564331,13.796766626930237Q9.35898056564331,13.861166626930236,9.384110565643311,13.921766626930237Q9.40924056564331,13.982466626930236,9.44572056564331,14.037066626930237Q9.48220056564331,14.091666626930238,9.528630565643311,14.138066626930236Q9.57506056564331,14.184466626930236,9.62965056564331,14.220966626930236Q9.68425056564331,14.257466626930237,9.74491056564331,14.282566626930237Q9.805570565643311,14.307666626930237,9.86997056564331,14.320566626930237Q9.93437056564331,14.333366626930237,10.00003056564331,14.333366626930237Q10.02528056564331,14.333366626930237,10.05046056564331,14.331466626930236L10.05235056564331,14.331266626930237Q10.171830565643312,14.322366626930236,10.28074056564331,14.272466626930237Q10.389640565643312,14.222566626930236,10.47436056564331,14.137866626930236L12.831380565643311,11.780866626930237Q12.87781056564331,11.734366626930237,12.914290565643311,11.679766626930236Q12.95077056564331,11.625206626930236,12.97588056564331,11.564546626930237Q13.00098056564331,11.503886626930237,13.01388056564331,11.439486626930236Q13.02668056564331,11.375086626930237,13.02668056564331,11.309426626930238Q13.02668056564331,11.243766626930237,13.01388056564331,11.179366626930237Q13.00098056564331,11.114966626930237,12.97588056564331,11.054306626930236Q12.95077056564331,10.993636626930236,12.914290565643311,10.939046626930237Q12.87781056564331,10.884446626930236,12.831380565643311,10.838026626930237Q12.78495056564331,10.791596626930238,12.730360565643311,10.755116626930237Q12.67576056564331,10.718636626930238,12.61510056564331,10.693506626930237Q12.55443056564331,10.668376626930236,12.49003056564331,10.655566626930236Q12.425640565643311,10.642756626930236,12.35998056564331,10.642756626930236Q12.294310565643311,10.642756626930236,12.22992056564331,10.655566626930236Q12.16552056564331,10.668376626930236,12.10485056564331,10.693506626930237Q12.04419056564331,10.718636626930238,11.989600565643311,10.755116626930237Q11.93500056564331,10.791596626930238,11.888570565643311,10.838026626930237L10.66670056564331,12.059866626930237L10.66670056564331,2.3333336269302367Q10.66670056564331,2.2676726269302367,10.65389056564331,2.2032726269302367Q10.64108056564331,2.138873626930237,10.61595056564331,2.078210626930237Q10.59082056564331,2.0175486269302367,10.554340565643312,1.9629536269302368Q10.51787056564331,1.9083576269302367,10.47144056564331,1.8619286269302369Q10.42501056564331,1.8154996269302368,10.370410565643311,1.7790206269302369Q10.31582056564331,1.7425409269302368,10.25515056564331,1.717413626930237Q10.19449056564331,1.6922862269302368,10.130090565643311,1.679476426930237Q10.065690565643312,1.6666666269302368,10.00003056564331,1.6666666269302368Q9.93437056564331,1.6666666269302368,9.86997056564331,1.679476426930237Q9.805570565643311,1.6922862269302368,9.74491056564331,1.717413626930237Q9.68425056564331,1.7425409269302368,9.62965056564331,1.7790206269302369Q9.57506056564331,1.8154996269302368,9.528630565643311,1.8619286269302369Q9.48220056564331,1.9083576269302367,9.44572056564331,1.9629526269302369Q9.40924056564331,2.0175486269302367,9.384110565643311,2.078210626930237Q9.35898056564331,2.138873626930237,9.34617056564331,2.2032726269302367Q9.33336056564331,2.2676726269302367,9.33337056564331,2.3333336269302367ZM6.666740565643311,13.666766626930237L6.666740565643311,2.333414626930237Q6.666740565643311,2.267753626930237,6.653930565643311,2.2033546269302366Q6.641120565643311,2.1389546269302366,6.61599056564331,2.078292626930237Q6.590860565643311,2.017629626930237,6.554390565643311,1.9630346269302368Q6.5179105656433105,1.9084396269302368,6.4714805656433105,1.8620096269302369Q6.425050565643311,1.8155806269302368,6.37045056564331,1.7791016269302369Q6.315860565643311,1.7426220269302368,6.255190565643311,1.7174947269302367Q6.19453056564331,1.6923673269302368,6.130130565643311,1.6795575269302367Q6.06573056564331,1.6667476892302369,6.000070565643311,1.6667476892302369Q5.974820565643311,1.6667476892302369,5.94965056564331,1.6686578969302368L5.947750565643311,1.6687980869302368Q5.828280565643311,1.6776747269302368,5.7193705656433105,1.7275937269302368Q5.610460565643311,1.7775126269302368,5.52575056564331,1.8622266269302368L3.1687235656433104,4.219246626930237Q3.1222945656433105,4.265676626930237,3.0858155656433106,4.320276626930237Q3.0493362656433107,4.3748666269302365,3.0242088656433106,4.4355366269302365Q2.9990815656433107,4.496196626930237,2.9862716656433106,4.560596626930237Q2.9734619015433106,4.624996626930237,2.9734619015433106,4.690656626930236Q2.9734619015433106,4.756316626930237,2.9862716656433106,4.820716626930237Q2.9990815656433107,4.885116626930237,3.0242088656433106,4.945776626930237Q3.0493362656433107,5.0064366269302365,3.0858155656433106,5.061036626930237Q3.1222945656433105,5.115626626930236,3.1687235656433104,5.162056626930237Q3.2151535656433103,5.208486626930236,3.2697485656433107,5.244966626930237Q3.3243435656433107,5.2814466269302365,3.3850065656433106,5.306576626930237Q3.4456685656433104,5.331696626930237,3.5100685656433104,5.344506626930237Q3.5744675656433107,5.357316626930237,3.6401285656433107,5.357316626930237Q3.7057895656433106,5.357316626930237,3.7701885656433105,5.344506626930237Q3.8345875656433104,5.331696626930237,3.8952505656433107,5.306576626930237Q3.9559135656433106,5.2814466269302365,4.010510565643311,5.244966626930237Q4.065100565643311,5.208486626930236,4.11153056564331,5.162056626930237L5.333410565643311,3.940186626930237L5.333410565643311,13.666766626930237Q5.333410565643311,13.732366626930236,5.346220565643311,13.796766626930237Q5.359030565643311,13.861166626930236,5.38415056564331,13.921866626930237Q5.409280565643311,13.982566626930236,5.44576056564331,14.037166626930237Q5.482240565643311,14.091766626930237,5.52867056564331,14.138166626930238Q5.575100565643311,14.184566626930236,5.62969056564331,14.221066626930236Q5.684290565643311,14.257566626930236,5.744950565643311,14.282666626930236Q5.805610565643311,14.307766626930237,5.870010565643311,14.320566626930237Q5.934410565643311,14.333366626930237,6.000070565643311,14.333366626930237Q6.06573056564331,14.333366626930237,6.130130565643311,14.320566626930237Q6.19453056564331,14.307766626930237,6.255190565643311,14.282666626930236Q6.315860565643311,14.257566626930236,6.37045056564331,14.221066626930236Q6.425050565643311,14.184566626930236,6.4714805656433105,14.138166626930238Q6.5179105656433105,14.091766626930237,6.554390565643311,14.037166626930237Q6.590860565643311,13.982566626930236,6.61599056564331,13.921866626930237Q6.641120565643311,13.861166626930236,6.653930565643311,13.796766626930237Q6.666740565643311,13.732366626930236,6.666740565643311,13.666766626930237Z" fill-rule="evenodd" fill="#191919"></path>
        </symbol>
    </defs>
    <use xlink:href="#sort"></use>
</svg>