<svg xmlns:xlink="http://www.w3.org/1999/xlink" xmlns="http://www.w3.org/2000/svg" class="icon-sidebar-sync w-[22px] h-[22px] text-grey opacity-40 hover:opacity-60" width="22"  height="22" ><defs><symbol xmlns="http://www.w3.org/2000/svg" viewBox="0 0 22 22" id="sidebar-sync" fill="#191919"><path d="M1.375,11Q1.375,9.04241,2.131757,7.25323Q2.8624,5.52579,4.194100000000001,4.194100000000001Q5.52579,2.8624,7.25323,2.131756Q9.04241,1.375,11,1.375Q12.9576,1.375,14.7468,2.131756Q16.459600000000002,2.85623,17.7834,4.17163L17.7834,3.57503Q17.7834,3.48475,17.801,3.3962Q17.8186,3.3076499999999998,17.8531,3.22424Q17.8877,3.1408300000000002,17.9378,3.06576Q17.988,2.99069,18.0518,2.92685Q18.1157,2.86301,18.1908,2.81285Q18.2658,2.76269,18.3492,2.72814Q18.4327,2.69359,18.5212,2.67598Q18.6097,2.6583699999999997,18.7,2.6583699999999997Q18.7903,2.6583699999999997,18.8789,2.67598Q18.9674,2.69359,19.0508,2.72814Q19.1342,2.76269,19.2093,2.81285Q19.2844,2.86301,19.3482,2.92685Q19.4121,2.99069,19.4622,3.06576Q19.5124,3.1408300000000002,19.5469,3.22424Q19.5815,3.3076499999999998,19.5991,3.3962Q19.6167,3.48475,19.6167,3.57503L19.6167,6.32503Q19.6167,6.41468,19.5993,6.50262Q19.582,6.59057,19.5479,6.67349Q19.5138,6.7564,19.4643,6.83115Q19.4148,6.90589,19.3518,6.96963Q19.2887,7.03337,19.2145,7.08368Q19.1404,7.134,19.0578,7.16899Q18.9753,7.20398,18.8875,7.22232Q18.7998,7.24065,18.7101,7.24164L18.7013,7.2417L18.7,7.2417L15.95,7.2417Q15.8597,7.2417,15.7712,7.22409Q15.6826,7.20647,15.5992,7.17192Q15.5158,7.13737,15.4407,7.08721Q15.3657,7.03705,15.3018,6.97321Q15.238,6.90937,15.1878,6.8343Q15.1377,6.75924,15.1031,6.67583Q15.0686,6.59241,15.0509,6.50387Q15.0333,6.41532,15.0333,6.32503Q15.0333,6.23475,15.0509,6.1462Q15.0686,6.05765,15.1031,5.97424Q15.1377,5.89083,15.1878,5.81576Q15.238,5.74069,15.3018,5.67685Q15.3657,5.61301,15.4407,5.56285Q15.5158,5.51269,15.5992,5.47814Q15.6826,5.44359,15.7712,5.42598Q15.8597,5.40837,15.95,5.40837L16.4264,5.40837Q14.1685,3.20833,11,3.20833Q7.77259,3.20833,5.49046,5.49046Q3.20833,7.77258,3.20833,11C3.20833,11.5063,2.79793,11.9167,2.291667,11.9167C1.785406,11.9167,1.375,11.5063,1.375,11ZM20.625,11Q20.625,12.9576,19.8682,14.7468Q19.1376,16.4742,17.8059,17.8059Q16.4742,19.1376,14.7468,19.8682Q12.9576,20.625,11,20.625Q9.04241,20.625,7.25323,19.8682Q5.54039,19.1438,4.21663,17.8284L4.21663,18.425Q4.21663,18.5153,4.19902,18.6038Q4.18141,18.6923,4.14686,18.7758Q4.11231,18.8592,4.06215,18.9342Q4.01199,19.0093,3.94815,19.0731Q3.88431,19.137,3.80924,19.1871Q3.73417,19.2373,3.65076,19.2719Q3.56735,19.3064,3.4788,19.324Q3.39025,19.3416,3.29997,19.3416Q3.20968,19.3416,3.12113,19.324Q3.03259,19.3064,2.94917,19.2719Q2.86576,19.2373,2.7906899999999997,19.1871Q2.71563,19.137,2.65179,19.0731Q2.58795,19.0093,2.53779,18.9342Q2.4876300000000002,18.8592,2.45308,18.7758Q2.41853,18.6923,2.40091,18.6038Q2.3833,18.5153,2.3833,18.425L2.3833,15.675Q2.3833,15.5853,2.40067,15.4974Q2.41804,15.4094,2.4521100000000002,15.3265Q2.4861899999999997,15.2436,2.5356899999999998,15.1689Q2.5851800000000003,15.0941,2.6482200000000002,15.0304Q2.7112600000000002,14.9666,2.78545,14.9163Q2.8596500000000002,14.866,2.94218,14.831Q3.0247200000000003,14.796,3.11247,14.7777Q3.20022,14.7593,3.28986,14.7584L3.29874,14.7583L3.29997,14.7583L6.05001,14.7583Q6.14029,14.7583,6.22884,14.7759Q6.31739,14.7935,6.4008,14.8281Q6.48421,14.8626,6.55928,14.9128Q6.63435,14.9629,6.69819,15.0268Q6.76203,15.0906,6.81219,15.1657Q6.86235,15.2408,6.8969,15.3242Q6.93145,15.4076,6.94906,15.4961Q6.96667,15.5847,6.96667,15.675Q6.96667,15.7653,6.94906,15.8538Q6.93145,15.9423,6.8969,16.0258Q6.86235,16.1092,6.81219,16.1842Q6.76203,16.2593,6.69819,16.3231Q6.63435,16.387,6.55928,16.4371Q6.48421,16.487299999999998,6.4008,16.521900000000002Q6.31739,16.5564,6.22884,16.573999999999998Q6.14029,16.5916,6.05001,16.5916L5.57363,16.5916Q7.83148,18.7917,11,18.7917Q14.2274,18.7917,16.5095,16.5095Q18.7917,14.2274,18.7917,11C18.7917,10.49374,19.2021,10.08333,19.7083,10.08333C20.2146,10.08333,20.625,10.49374,20.625,11Z" fill-rule="evenodd" fill="#191919"></path></symbol></defs><use xlink:href="#sidebar-sync"></use></svg>