<svg xmlns:xlink="http://www.w3.org/1999/xlink" xmlns="http://www.w3.org/2000/svg" class="icon-list-sidebar w-[22px] h-[22px] text-grey whiteSvg_2wUcK opacity-40 hover:opacity-60" width="22"  height="22" ><defs><symbol xmlns="http://www.w3.org/2000/svg" viewBox="0 0 20 20" id="list-sidebar" fill="#191919"><path d="M1.25,4.58333L1.25,15.4167C1.25,17.2576,2.74238,18.75,4.58333,18.75L15.4167,18.75C17.2576,18.75,18.75,17.2576,18.75,15.4167L18.75,4.58333C18.75,2.74238,17.2576,1.25,15.4167,1.25L4.58333,1.25C2.74238,1.25,1.25,2.74238,1.25,4.58333ZM14.5606,8.22825L9.55196,13.2369C9.14514,13.6437,8.48559,13.6437,8.078800000000001,13.2369L8.07362,13.2317L5.42717,10.58525C5.02037,10.17846,5.02037,9.51891,5.42717,9.112110000000001C5.83396,8.70532,6.49351,8.70532,6.90031,9.112110000000001L8.81539,11.02719L13.0875,6.75511C13.4943,6.34831,14.1538,6.34831,14.5606,6.75511C14.9674,7.16191,14.9674,7.82145,14.5606,8.22825Z" fill-rule="evenodd" fill="#191919"></path></symbol></defs><use xlink:href="#list-sidebar"></use></svg>