<svg xmlns="http://www.w3.org/2000/svg" fill="none" width="44" height="44" viewBox="0 0 44 44"><path d="M7.4 8.5v8.581q0 1.077.761 1.839.762.761 1.839.761h22.395q1.077 0 1.839-.76.761-.762.761-1.84v-8.58q0-1.078-.761-1.84-.762-.76-1.839-.76H10q-1.077 0-1.839.76-.761.762-.761 1.84zm2.2-.4h23.195v9.382H9.6V8.1zm26.998 5.075v6.976q0 .787-.557 1.344-.556.556-1.343.556h-9.35q-1.698 0-2.898 1.201-1.201 1.201-1.201 2.9v2.004h-1.237q-.456 0-.778.323-.322.322-.322.777v5.407q0 1.424 1.006 2.431 1.007 1.007 2.43 1.007 1.425 0 2.431-1.007 1.007-1.007 1.007-2.43v-5.408q0-.455-.322-.777-.322-.323-.778-.323H23.45v-2.005q0-.787.556-1.343.557-.557 1.344-.557h9.349q1.698 0 2.899-1.2 1.2-1.201 1.2-2.9v-6.976q0-.456-.322-.778t-.777-.322q-.456 0-.778.322t-.322.778zM15.042 28.907q0-2.05-3.69-5.824-.056-.056-.131-.056-.075 0-.13.056Q7.4 26.857 7.4 28.907q0 1.583 1.12 2.702 1.118 1.119 2.7 1.119 1.584 0 2.703-1.12 1.119-1.118 1.119-2.701zm-2.2 0q0 .671-.475 1.146-.475.475-1.146.475-.672 0-1.146-.475-.475-.475-.475-1.146 0-.363.558-1.257.308-.495.748-1.056l.315-.4.314.4q.44.561.75 1.056.557.894.557 1.257zm8.27 5.756v-4.307h2.474v4.307q0 .513-.362.875-.363.363-.875.363-.513 0-.875-.363-.362-.362-.362-.875z" fill-rule="evenodd" fill="#191919"/></svg>