<svg xmlns="http://www.w3.org/2000/svg" width="28" height="28" viewBox="0 0 28 28" class="icon_1sJkQ"><path d="M25.573 3.696c-.092-1.092-.902-1.946-1.889-1.946H13.415l-.182.01c-.963.104-1.715 1.024-1.715 2.143v2.45l.009.207c.091 1.091.902 1.945 1.888 1.945h10.27l.182-.01c.962-.104 1.715-1.023 1.715-2.142v-2.45l-.009-.207zm-11.525.514h9.004v1.835h-9.004V4.21zm6.943 8.274c-.092-1.04-.906-1.854-1.896-1.854l-14.857-.01-.183.01c-.966.1-1.722.975-1.722 2.042v2.643l.01.198c.091 1.04.905 1.853 1.895 1.853l14.857.01.184-.01c.966-.099 1.721-.975 1.721-2.041V12.68l-.009-.197zm-16.118.48l13.587.01v2.058l-13.587-.01v-2.057zm20.785 8.473c-.092-1.09-.904-1.942-1.891-1.942H9.719l-.183.01c-.964.104-1.717 1.022-1.717 2.14V24.1l.009.207c.092 1.09.903 1.942 1.89 1.942h14.049l.183-.01c.963-.104 1.717-1.022 1.717-2.139v-2.457l-.009-.206zm-15.306.514h12.782v1.843H10.352V21.95z" fill-rule="evenodd"/></svg>