<svg xmlns="http://www.w3.org/2000/svg" width="28" height="28" viewBox="0 0 28 28" class="icon_1sJkQ"><path d="M1.167 7.009V20.99c0 2.578 2.042 4.676 4.62 4.676h16.426c2.578 0 4.62-2.098 4.62-4.676V7.01c0-2.578-2.126-4.676-4.704-4.676H5.828c-2.578 0-4.661 2.098-4.661 4.676zm23.333.224v-.245a2.314 2.314 0 00-2.323-2.321H5.823A2.314 2.314 0 003.5 6.987v.246h21zm-21 2.334v11.445a2.314 2.314 0 002.323 2.321h16.353a2.314 2.314 0 002.324-2.32V9.566h-21zm3.5 2.1q-.057 0-.114.005-.057.006-.114.017-.056.011-.11.028-.056.017-.108.038-.053.022-.104.05-.05.026-.098.058t-.092.068q-.044.037-.085.077-.04.04-.077.085-.036.044-.068.092-.032.048-.059.098-.027.05-.049.104-.022.053-.038.108-.017.055-.028.11-.011.057-.017.114-.006.057-.006.114 0 .058.006.115t.017.113q.01.056.028.11.016.056.038.109t.05.103q.026.05.058.098t.068.092q.036.045.077.085.04.04.085.077.044.037.092.068.047.032.098.06.05.026.104.048.052.022.107.039.055.016.111.028.057.01.114.016T7 14h1.167q.057 0 .114-.006.057-.005.113-.016.056-.012.111-.028.055-.017.108-.039t.104-.049q.05-.027.098-.059.047-.031.092-.068.044-.036.085-.077.04-.04.076-.085.037-.044.069-.092.032-.047.059-.098.027-.05.049-.103.021-.053.038-.108.017-.055.028-.111t.017-.113q.005-.057.005-.115 0-.057-.005-.114-.006-.057-.017-.113-.011-.056-.028-.111t-.038-.108q-.022-.053-.05-.104-.026-.05-.058-.098t-.069-.092q-.036-.044-.076-.085-.04-.04-.085-.077-.045-.036-.092-.068-.048-.032-.098-.059-.05-.027-.104-.049-.053-.021-.108-.038-.055-.017-.11-.028-.057-.011-.114-.017-.057-.005-.114-.005H7zm5.833 0q-.057 0-.114.005-.057.006-.113.017-.057.011-.111.028-.055.017-.108.038-.053.022-.104.05-.05.026-.098.058t-.092.068q-.044.037-.085.077-.04.04-.077.085-.036.044-.068.092-.032.048-.059.098-.027.05-.049.104-.021.053-.038.108-.017.055-.028.11-.011.057-.017.114-.005.057-.005.114 0 .058.005.115.006.057.017.113.011.056.028.11.017.056.038.109.022.053.05.103.026.05.058.098t.068.092q.037.045.077.085.04.04.085.077.044.037.092.068.048.032.098.06.05.026.104.048.053.022.108.039.054.016.11.028.057.01.114.016t.114.006H14q.057 0 .114-.006.057-.005.114-.016.056-.012.11-.028.055-.017.108-.039t.104-.049q.05-.027.098-.059.048-.031.092-.068.044-.036.085-.077.04-.04.077-.085.036-.044.068-.092.032-.047.059-.098.027-.05.049-.103.022-.053.038-.108.017-.055.028-.111t.017-.113q.006-.057.006-.115 0-.057-.006-.114t-.017-.113q-.01-.056-.028-.111-.016-.055-.038-.108t-.05-.104q-.026-.05-.058-.098t-.068-.092q-.037-.044-.077-.085-.04-.04-.085-.077-.044-.036-.092-.068-.048-.032-.098-.059-.05-.027-.104-.049-.053-.021-.107-.038-.055-.017-.111-.028-.057-.011-.114-.017-.057-.005-.114-.005h-1.167zm4.667 1.166q0-.057.006-.114.005-.057.016-.113.012-.056.028-.111.017-.055.039-.108t.049-.104q.027-.05.059-.098.031-.048.068-.092.036-.044.077-.085.04-.04.085-.077.044-.036.091-.068.048-.032.099-.059.05-.027.103-.049.053-.021.108-.038.055-.017.111-.028t.113-.017q.057-.005.115-.005h1.166q.058 0 .115.005.057.006.113.017.056.011.111.028t.108.038q.053.022.103.05.05.026.098.058t.092.068q.045.037.085.077.04.04.077.085.037.044.068.092.032.048.06.098.026.05.048.104.022.053.039.108.016.055.028.11.01.057.016.114t.006.114q0 .058-.006.115-.005.057-.016.113-.012.056-.028.11-.017.056-.039.109t-.049.103q-.027.05-.059.098-.031.048-.068.092-.036.045-.077.085-.04.04-.085.077-.044.037-.092.068-.047.032-.098.06-.05.026-.103.048-.053.022-.108.039-.055.016-.111.028-.056.01-.113.016t-.115.006h-1.166q-.058 0-.115-.006-.057-.005-.113-.016-.056-.012-.111-.028-.055-.017-.108-.039t-.103-.049q-.05-.027-.099-.059-.047-.031-.091-.068-.045-.036-.085-.077-.04-.04-.077-.085-.037-.044-.068-.092-.032-.047-.06-.098-.026-.05-.048-.103-.022-.053-.039-.108-.016-.055-.028-.111-.01-.056-.016-.113t-.006-.115zM7 16.333q-.057 0-.114.006t-.114.017q-.056.01-.11.028-.056.016-.108.038-.053.022-.104.05-.05.026-.098.058t-.092.068q-.044.037-.085.077-.04.04-.077.085-.036.044-.068.092-.032.048-.059.098-.027.05-.049.104-.022.053-.038.107-.017.055-.028.111-.011.057-.017.114-.006.057-.006.114t.006.114q.006.057.017.114.01.056.028.11.016.056.038.108.022.053.05.104.026.05.058.098t.068.092q.036.044.077.085.04.04.085.077.044.036.092.068.047.032.098.059.05.027.104.049.052.022.107.038.055.017.111.028.057.011.114.017.057.006.114.006h1.167q.057 0 .114-.006t.113-.017q.056-.011.111-.028.055-.016.108-.038t.104-.05q.05-.026.098-.058.047-.032.092-.068.044-.036.085-.077.04-.04.076-.085.037-.044.069-.092.032-.047.059-.098.027-.05.049-.104.021-.052.038-.107.017-.055.028-.111.011-.057.017-.114.005-.057.005-.114t-.005-.114q-.006-.057-.017-.114-.011-.056-.028-.11-.017-.055-.038-.108-.022-.053-.05-.104-.026-.05-.058-.098t-.069-.092q-.036-.044-.076-.085-.04-.04-.085-.077-.045-.036-.092-.068-.048-.032-.098-.059-.05-.027-.104-.049-.053-.022-.108-.038-.055-.017-.11-.028-.057-.011-.114-.017-.057-.006-.114-.006H7zm4.667 1.167q0-.057.005-.114.006-.057.017-.114.011-.056.028-.11.017-.055.038-.108.022-.053.05-.104.026-.05.058-.098t.068-.092q.037-.044.077-.085.04-.04.085-.077.044-.036.092-.068.048-.032.098-.059.05-.027.104-.049.053-.022.108-.038.054-.017.11-.028.057-.011.114-.017.057-.006.114-.006H14q.057 0 .114.006t.114.017q.056.01.11.028.055.016.108.038t.104.05q.05.026.098.058t.092.068q.044.037.085.077.04.04.077.085.036.044.068.092.032.048.059.098.027.05.049.104.022.053.038.107.017.055.028.111.011.057.017.114.006.057.006.114t-.006.114q-.006.057-.017.114-.01.056-.028.11-.016.056-.038.108-.022.053-.05.104-.026.05-.058.098t-.068.092q-.037.044-.077.085-.04.04-.085.077-.044.036-.092.068-.048.032-.098.059-.05.027-.104.049-.053.022-.107.038-.055.017-.111.028-.057.011-.114.017-.057.006-.114.006h-1.167q-.057 0-.114-.006t-.113-.017q-.057-.011-.111-.028-.055-.016-.108-.038t-.104-.05q-.05-.026-.098-.058t-.092-.068q-.044-.036-.085-.077-.04-.04-.077-.085-.036-.044-.068-.092-.032-.047-.059-.098-.027-.05-.049-.104-.021-.052-.038-.107-.017-.055-.028-.111-.011-.057-.017-.114-.005-.057-.005-.114z" fill-rule="evenodd"/></svg>