<svg xmlns="http://www.w3.org/2000/svg" width="28" height="28" viewBox="0 0 28 28" class="icon_1sJkQ"><path d="M18.9 22.167V5.833A2.333 2.333 0 0121.233 3.5h2.684a2.333 2.333 0 012.333 2.333v16.334a2.333 2.333 0 01-2.333 2.333h-2.684a2.333 2.333 0 01-2.333-2.333zm2.333 0V5.833h2.684v16.334h-2.684zm-19.483-3.5V5.833A2.333 2.333 0 014.083 3.5h2.684A2.333 2.333 0 019.1 5.833v12.834A2.333 2.333 0 016.767 21H4.083a2.333 2.333 0 01-2.333-2.333zm2.333 0V5.833h2.684v12.834H4.083zM12.6 16.1a2.333 2.333 0 01-2.333-2.333V5.833A2.333 2.333 0 0112.6 3.5h2.683a2.333 2.333 0 012.334 2.333v7.934a2.333 2.333 0 01-2.334 2.333H12.6zm2.683-2.333H12.6V5.833h2.683v7.934z" fill-rule="evenodd"/></svg>