<svg xmlns="http://www.w3.org/2000/svg" fill="none" width="158" height="40" viewBox="0 0 158 40" class="productLogo__1LRH"><path d="M15.837 16.635l-2.306 2.808 5.463 4.48a1.818 1.818 0 002.571-.269l9.799-12.235-2.837-2.271-8.648 10.799-4.042-3.312z" fill-rule="evenodd" fill="#FFB000"/><path d="M20 30.717c-5.91 0-10.717-4.808-10.717-10.717 0-5.91 4.808-10.717 10.717-10.717V6.172C12.375 6.172 6.172 12.375 6.172 20c0 7.625 6.203 13.828 13.828 13.828 7.625 0 13.828-6.203 13.828-13.828h-3.111c0 5.91-4.808 10.717-10.717 10.717z" fill-rule="evenodd" fill="#4772FA"/><g><path d="M123.822 27.76c-3.136 0-5.693-2.56-5.693-5.733 0-3.172 2.47-5.752 5.678-5.752v-2.176c-4.323 0-7.83 3.547-7.83 7.918 0 4.373 3.527 7.92 7.85 7.92 4.323 0 7.841-3.718 7.841-7.949h-2.152c0 3.244-2.557 5.773-5.694 5.773zM114.183 11.975V10h-18.97v1.975h8.509v17.912h2.092V11.975h8.37zM133.153 29.887h2.231V10h-2.231v19.887zM111.951 29.887h2.232V19.309h-2.232v10.578z" fill-rule="evenodd" fill="#4772FA"/><path d="M113.155 14.016c-.842 0-1.524.69-1.524 1.542 0 .851.682 1.541 1.524 1.541s1.526-.69 1.526-1.541c0-.852-.684-1.542-1.526-1.542zM138.613 22.004l5.464-5.524-1.521-1.538-6.225 6.293a1.094 1.094 0 000 1.538L143.479 30 145 28.462l-6.387-6.458zM73.74 27.76c-3.136 0-5.69-2.56-5.69-5.733 0-3.172 2.475-5.752 5.683-5.752v-2.176c-4.324 0-7.835 3.547-7.835 7.918 0 4.373 3.522 7.92 7.845 7.92s7.841-3.718 7.841-7.949h-2.152c0 3.244-2.555 5.773-5.692 5.773zM64.109 11.975V10H45v1.975h8.508v17.912h2.232V11.975h8.369zM83.079 29.887h2.231V13.949H83.08v15.938zM62.017 29.887h2.092V19.309h-2.092v10.578z" fill-rule="evenodd" fill="#4772FA"/><path d="M64.6 15.558q0 .075-.008.15-.007.076-.022.15-.015.075-.036.147-.022.073-.05.143-.03.07-.065.136-.035.067-.077.13-.041.063-.089.122-.047.058-.1.112-.053.053-.111.101-.058.048-.12.09-.063.042-.129.078t-.135.065q-.069.029-.14.05-.072.023-.146.038-.073.014-.148.022-.074.007-.15.007-.074 0-.149-.007-.074-.008-.148-.022-.073-.015-.145-.037-.071-.022-.14-.051-.07-.03-.136-.065-.066-.036-.128-.078t-.12-.09q-.058-.048-.111-.101-.053-.054-.1-.112-.048-.059-.09-.122-.041-.063-.077-.13-.035-.066-.063-.136-.03-.07-.05-.143-.023-.072-.037-.147-.015-.074-.022-.15-.008-.075-.008-.15 0-.076.008-.151.007-.076.022-.15.014-.074.036-.147.022-.072.05-.142.03-.07.064-.137.036-.067.077-.13.042-.063.09-.121.047-.059.1-.112.053-.054.11-.102.059-.048.121-.09.062-.042.128-.078.066-.035.135-.064.07-.03.141-.051.072-.022.145-.037.074-.015.148-.022.075-.008.15-.008t.15.008q.074.007.147.022.074.015.145.037.072.022.141.05.07.03.135.065.066.036.129.078.062.042.12.09.058.048.11.102.054.053.101.112.048.058.09.121.04.063.076.13t.064.137q.029.07.05.142.022.073.037.147t.022.15q.007.075.007.15z" fill="#4772FA"/><path d="M93.993 16.48l-1.521-1.538-6.225 6.293a1.093 1.093 0 000 1.538L93.394 30l1.522-1.538-6.387-6.458 5.464-5.524z" fill-rule="evenodd" fill="#4772FA"/></g></svg>