<svg xmlns="http://www.w3.org/2000/svg" fill="none" width="44" height="44" viewBox="0 0 44 44"><path d="M12 10.53H8.53a1.265 1.265 0 110-2.53H18a1.265 1.265 0 010 2.53h-3.47v22.94H18A1.265 1.265 0 0118 36H8.53a1.265 1.265 0 010-2.53H12V10.53zm21.4 5.864c-.04.21-.194.375-.442.375-.235 0-.39-.164-.43-.381-.468-2.544-.432-2.571-3.113-3.062-.254-.046-.415-.191-.415-.435s.162-.388.396-.434c2.713-.523 2.677-.544 3.132-3.056.04-.237.195-.401.43-.401.248 0 .401.164.442.395.455 2.562.427 2.596 3.127 3.062.234.04.403.19.403.434s-.162.389-.396.435c-2.707.522-2.673.543-3.134 3.068zm-2.97 19.812c-.062.465-.428.794-.92.794-.52 0-.877-.33-.94-.845-.648-5.256-.93-5.46-6.621-6.277-.59-.067-.949-.38-.949-.87 0-.481.358-.801.831-.886 5.788-1.013 6.091-1.037 6.74-6.277.062-.516.42-.845.939-.845.5 0 .858.33.92.82.703 5.382.92 5.588 6.73 6.302.473.06.84.405.84.887 0 .465-.357.802-.831.869-5.843 1.03-6.017 1.08-6.738 6.328z" fill-rule="evenodd" fill="#000"/></svg>