<svg xmlns="http://www.w3.org/2000/svg" width="28" height="28" viewBox="0 0 28 28" class="icon_1sJkQ"><path d="M1.75 21.583a4.667 4.667 0 004.667 4.667h10.54a4.666 4.666 0 003.015-1.104l4.626-3.915a4.667 4.667 0 001.652-3.562V6.417a4.667 4.667 0 00-4.667-4.667H6.417A4.667 4.667 0 001.75 6.417v15.166zm14.583 2.334v-1.75A4.667 4.667 0 0121 17.5h2.917V6.417q0-.967-.684-1.65-.683-.684-1.65-.684H6.417q-.967 0-1.65.684-.684.683-.684 1.65v15.166q0 .967.684 1.65.683.684 1.65.684h9.916zm6.305-4.084H21q-.966 0-1.65.684-.683.683-.683 1.65v1.026l3.97-3.36z" fill-rule="evenodd"/></svg>