<svg xmlns="http://www.w3.org/2000/svg" fill="none" width="44" height="44" viewBox="0 0 44 44"><path d="M27.64 15.285l3.326-3.327q.387-.386.387-.933t-.387-.934L27.64 6.764q-.387-.387-.934-.387t-.934.387q-.387.387-.387.934t.387.934l1.07 1.07h-9.546q-5.094 0-8.696 3.602Q4.998 16.906 4.998 22q0 3.393 1.728 6.29.29.487.855.522.569.036.998-.393.769-.769.178-1.854Q7.639 24.512 7.639 22q0-4 2.829-6.828 2.828-2.829 6.828-2.829h9.55l-1.074 1.075q-.387.386-.387.933t.387.934q.387.387.934.387t.934-.387zm7.606 2.151Q36.363 19.49 36.363 22q0 4-2.829 6.829-2.828 2.828-6.828 2.828h-9.548l1.074-1.074q.387-.387.387-.934t-.387-.934q-.386-.387-.933-.387t-.934.387l-3.327 3.327q-.387.387-.387.934t.387.934l3.327 3.326q.387.387.934.387t.933-.387q.387-.387.387-.934 0-.546-.387-.933l-1.07-1.07h9.544q5.094 0 8.696-3.603 3.602-3.602 3.602-8.696 0-3.392-1.728-6.29-.29-.486-.854-.522-.57-.035-.999.394-.768.769-.177 1.854z" fill-rule="evenodd" fill="#191919"/></svg>