<svg xmlns="http://www.w3.org/2000/svg" fill="none" width="44" height="44" viewBox="0 0 44 44"><path d="M22 6.55h.057q3.134.011 5.994 1.23 2.763 1.177 4.892 3.314 2.13 2.137 3.298 4.905Q37.45 18.863 37.45 22q0 3.144-1.214 6.014-1.173 2.772-3.311 4.91-2.139 2.14-4.911 3.312Q25.144 37.45 22 37.45q-2.944 0-5.66-1.07-2.622-1.032-4.72-2.935Q9.534 31.55 8.25 29.05q-1.32-2.568-1.617-5.445Q6.55 22.807 6.55 22q0-3.143 1.214-6.014 1.173-2.772 3.311-4.91 2.139-2.14 4.911-3.312Q18.856 6.55 22 6.55zm0 18.014H9.058l.083.367q.224.976.598 1.923 1.006 2.54 2.937 4.47 1.931 1.931 4.47 2.937 2.339.925 4.854.925t4.854-.925q2.54-1.006 4.47-2.937 1.931-1.93 2.937-4.47.925-2.339.925-4.854t-.925-4.854q-1.006-2.54-2.937-4.47-1.93-1.931-4.47-2.937-1.65-.653-3.39-.845l-.332-.037v14.575q0 .469-.332.8-.331.332-.8.332zM20.868 22.3V8.857l-.333.037q-1.739.192-3.389.845-2.54 1.006-4.47 2.937-1.931 1.93-2.937 4.47-.925 2.339-.925 4.854v.3h12.054z" fill-rule="evenodd" fill="#191919"/></svg>